HIERARCHY
ROOT Hips
{
	OFFSET 0.000000 0.000000 0.000000
	CHANNELS 6 Xposition Yposition Zposition Zrotation Yrotation Xrotation 
	JOINT LHipJoint
	{
		OFFSET 0.000000 0.000000 0.000000
		CHANNELS 3 Zrotation Yrotation Xrotation
		JOINT LeftUpLeg
		{
			OFFSET 1.363060 -1.794630 0.839290
			CHANNELS 3 Zrotation Yrotation Xrotation
			JOINT LeftLeg
			{
				OFFSET 2.448110 -6.726130 0.000000
				CHANNELS 3 Zrotation Yrotation Xrotation
				JOINT LeftFoot
				{
					OFFSET 2.562200 -7.039590 0.000000
					CHANNELS 3 Zrotation Yrotation Xrotation
					JOINT LeftToeBase
					{
						OFFSET 0.157640 -0.433110 2.322550
						CHANNELS 3 Zrotation Yrotation Xrotation
						End Site
						{
							OFFSET 0.000000 0.000000 0.000000
						}
					}
				}
			}
		}
	}
	JOINT RHipJoint
	{
		OFFSET 0.000000 0.000000 0.000000
		CHANNELS 3 Zrotation Yrotation Xrotation
		JOINT RightUpLeg
		{
			OFFSET -1.305520 -1.794630 0.839290
			CHANNELS 3 Zrotation Yrotation Xrotation
			JOINT RightLeg
			{
				OFFSET -2.542530 -6.985550 0.000000
				CHANNELS 3 Zrotation Yrotation Xrotation
				JOINT RightFoot
				{
					OFFSET -2.568260 -7.056230 0.000000
					CHANNELS 3 Zrotation Yrotation Xrotation
					JOINT RightToeBase
					{
						OFFSET -0.164730 -0.452590 2.363150
						CHANNELS 3 Zrotation Yrotation Xrotation
						End Site
						{
							OFFSET 0.000000 0.000000 0.000000
						}
					}
				}
			}
		}
	}
	JOINT LowerBack
	{
		OFFSET 0.000000 0.000000 0.000000
		CHANNELS 3 Zrotation Yrotation Xrotation
		JOINT Spine
		{
			OFFSET 0.028270 2.035590 -0.193380
			CHANNELS 3 Zrotation Yrotation Xrotation
			JOINT Spine1
			{
				OFFSET 0.056720 2.048850 -0.042750
				CHANNELS 3 Zrotation Yrotation Xrotation
				JOINT Neck
				{
					OFFSET 0.000000 0.000000 0.000000
					CHANNELS 3 Zrotation Yrotation Xrotation
					JOINT Neck1
					{
						OFFSET -0.054170 1.746240 0.172020
						CHANNELS 3 Zrotation Yrotation Xrotation
						JOINT Head
						{
							OFFSET 0.104070 1.761360 -0.123970
							CHANNELS 3 Zrotation Yrotation Xrotation
							End Site
							{
								OFFSET 0.000000 0.000000 0.000000
							}
						}
					}
				}
				JOINT LeftShoulder
				{
					OFFSET 0.000000 0.000000 0.000000
					CHANNELS 3 Zrotation Yrotation Xrotation
					JOINT LeftArm
					{
						OFFSET 3.362410 1.200890 -0.311210
						CHANNELS 3 Zrotation Yrotation Xrotation
						JOINT LeftForeArm
						{
							OFFSET 4.983000 -0.000000 -0.000000
							CHANNELS 3 Zrotation Yrotation Xrotation
							JOINT LeftHand
							{
								OFFSET 3.483560 -0.000000 -0.000000
								CHANNELS 3 Zrotation Yrotation Xrotation
								JOINT LeftFingerBase
								{
									OFFSET 0.000000 0.000000 0.000000
									CHANNELS 3 Zrotation Yrotation Xrotation
									JOINT LeftHandIndex1
									{
										OFFSET 0.715260 -0.000000 -0.000000
										CHANNELS 3 Zrotation Yrotation Xrotation
										End Site
										{
											OFFSET 0.000000 0.000000 0.000000
										}
									}
								}
								JOINT LThumb
								{
									OFFSET 0.000000 0.000000 0.000000
									CHANNELS 3 Zrotation Yrotation Xrotation
									End Site
									{
										OFFSET 0.000000 0.000000 0.000000
									}
								}
							}
						}
					}
				}
				JOINT RightShoulder
				{
					OFFSET 0.000000 0.000000 0.000000
					CHANNELS 3 Zrotation Yrotation Xrotation
					JOINT RightArm
					{
						OFFSET -3.136600 1.374050 -0.404650
						CHANNELS 3 Zrotation Yrotation Xrotation
						JOINT RightForeArm
						{
							OFFSET -5.241900 -0.000000 -0.000000
							CHANNELS 3 Zrotation Yrotation Xrotation
							JOINT RightHand
							{
								OFFSET -3.444170 -0.000000 -0.000000
								CHANNELS 3 Zrotation Yrotation Xrotation
								JOINT RightFingerBase
								{
									OFFSET 0.000000 0.000000 0.000000
									CHANNELS 3 Zrotation Yrotation Xrotation
									JOINT RightHandIndex1
									{
										OFFSET -0.622530 -0.000000 -0.000000
										CHANNELS 3 Zrotation Yrotation Xrotation
										End Site
										{
											OFFSET 0.000000 0.000000 0.000000
										}
									}
								}
								JOINT RThumb
								{
									OFFSET 0.000000 0.000000 0.000000
									CHANNELS 3 Zrotation Yrotation Xrotation
									End Site
									{
										OFFSET 0.000000 0.000000 0.000000
									}
								}
							}
						}
					}
				}
			}
		}
	}
}
MOTION
Frames: 8
Frame Time: 0.008333
4.057175 17.397701 31.303870 -2.008679 -27.539035 24.465849 15.819071 -4.396706 -5.406373 -3.690547 -33.095963 -34.237737 -4.641459 18.375172 26.386764 1.661873 3.464864 10.922484 3.978700 -12.132000 -36.200500 -14.958945 3.516290 -5.036126 22.749610 29.554241 -24.271791 3.941733 -16.707969 28.434398 1.025239 -7.839012 2.018461 -0.173700 2.684900 -7.402600 6.041035 -0.957943 -8.765700 1.672141 -2.887676 -5.647419 -0.241690 -1.192653 2.572140 -3.937624 -4.287919 -23.586048 5.746419 -4.551574 10.713614 -0.200600 -1.742700 14.219000 -1.739894 -10.776337 -1.138738 -43.843566 -13.256544 39.911299 43.459513 -40.958568 -27.100429 1.447404 -5.400120 -65.205478 32.899103 22.541637 18.124000 -7.125000 0.000000 0.000000 9.087200 60.715200 3.497600 4.558554 12.998225 -0.016799 37.543848 23.911290 48.246572 -56.245030 44.070494 -34.019235 -0.621264 4.225521 -50.755321 -39.210336 -43.358695 32.623800 7.125000 0.000000 0.000000 -9.465900 -83.533100 8.345200 
4.063612 17.392168 31.363494 -2.116407 -28.159446 24.388744 15.724130 -4.499705 -5.322508 -2.979468 -34.229012 -33.627467 -4.942494 17.728493 24.619793 1.187019 5.108450 10.398449 4.219100 -12.446400 -37.330100 -14.886809 3.524235 -5.073826 22.782719 29.397345 -23.959439 3.950705 -16.606565 28.389944 0.809204 -7.241831 2.105525 -0.179500 2.728800 -7.524700 6.064943 -0.846744 -8.617264 1.627099 -2.721295 -5.611799 -0.379572 -1.107259 2.650547 -3.854926 -4.331975 -23.619628 5.743675 -4.649564 10.608985 -0.224600 -1.779100 14.147900 -1.760951 -10.754665 -1.126034 -43.821709 -13.141107 40.028671 43.427885 -40.967358 -27.078550 1.455810 -5.407389 -65.218117 32.976154 22.632105 18.232900 -7.125000 0.000000 0.000000 9.180500 60.846200 3.562500 4.546744 12.972793 -0.018317 37.908653 23.981290 48.275268 -55.922661 43.981172 -33.702055 -0.589132 4.233126 -50.565344 -39.106330 -43.222371 32.475900 7.125000 0.000000 0.000000 -9.370000 -83.352600 8.228100 
4.069484 17.391377 31.423119 -2.253316 -28.770263 24.339176 15.632060 -4.615054 -5.242612 -2.167406 -35.432124 -33.040280 -5.189831 17.113087 22.933608 0.711786 6.711896 9.974063 4.445200 -12.730400 -38.367400 -14.843946 3.554137 -5.069422 22.779474 29.687675 -23.539490 3.979702 -16.484214 28.213934 0.738095 -7.060496 2.135282 -0.176700 2.707500 -7.465400 6.044865 -0.771354 -8.435441 1.613051 -2.618629 -5.600611 -0.361836 -1.047473 2.582750 -3.856939 -4.292445 -23.514309 5.801882 -4.602132 10.517694 -0.179700 -1.757000 14.057500 -1.778355 -10.728291 -1.123551 -43.938909 -12.853629 40.146573 43.437065 -41.005617 -27.091050 1.430291 -5.405957 -65.163430 33.191715 22.456778 18.251000 -7.125000 0.000000 0.000000 9.486800 60.687900 3.646800 4.557563 12.961081 -0.012672 38.192467 23.991074 48.514766 -55.712392 43.920777 -33.490338 -0.580639 4.242788 -50.472200 -39.125446 -43.335250 32.546600 7.125000 0.000000 0.000000 -9.284900 -83.466700 8.173600 
4.066548 17.395104 31.471789 -2.583716 -29.707098 24.554631 15.521547 -4.706008 -5.233598 -1.443927 -36.049317 -32.394425 -5.390301 16.419062 21.322293 0.452074 7.707437 9.922222 4.546200 -12.853800 -38.823700 -14.839516 3.622680 -5.029452 22.721408 30.350518 -23.402987 4.032391 -16.446767 28.021954 0.636600 -6.828374 2.175640 -0.178200 2.719500 -7.498700 5.944480 -0.572331 -8.358073 1.575970 -2.360768 -5.572670 -0.303077 -0.915893 2.703844 -3.738712 -4.307367 -23.759836 5.875645 -4.640691 10.465973 -0.182000 -1.745900 14.099900 -1.776854 -10.691611 -1.121518 -43.808065 -12.754086 40.166943 43.481510 -41.044417 -27.156497 1.436104 -5.422166 -65.139432 33.356594 22.586645 18.444200 -7.125000 0.000000 0.000000 9.700200 60.890600 3.776500 4.549852 12.957883 -0.027340 38.478654 24.147273 48.547969 -55.508947 43.844864 -33.268138 -0.562136 4.228288 -50.372417 -38.608165 -43.073636 31.959400 7.125000 0.000000 0.000000 -7.687500 -83.025000 6.700400 
4.072194 17.390248 31.522606 -2.714792 -30.313202 24.675397 15.444803 -4.817991 -5.177631 -0.580650 -37.082189 -32.023444 -5.580525 15.817134 19.704005 0.151739 8.829689 9.803676 4.677900 -13.011600 -39.412000 -14.819107 3.677196 -5.028439 22.580798 30.664798 -23.285861 4.053919 -16.412734 27.918976 0.556926 -6.633858 2.180555 -0.180000 2.732900 -7.536100 5.849296 -0.498067 -8.293072 1.554323 -2.252829 -5.563553 -0.277480 -0.856095 2.718547 -3.695288 -4.318255 -23.842107 5.937577 -4.662354 10.390766 -0.160900 -1.742800 14.081600 -1.785928 -10.664873 -1.121209 -43.781336 -12.586250 40.228454 43.523755 -41.084422 -27.210271 1.434051 -5.430496 -65.096196 33.518480 22.639639 18.582300 -7.125000 0.000000 0.000000 9.912800 60.997800 3.885500 4.546991 12.956859 -0.033917 38.741112 24.230845 48.649615 -55.292879 43.767215 -33.039791 -0.547320 4.221069 -50.279470 -38.179305 -42.899706 31.496800 7.125000 0.000000 0.000000 -6.413800 -82.700400 5.548900 
4.079873 17.384376 31.570599 -2.800822 -30.835091 24.834477 15.389039 -4.925493 -5.131556 0.273536 -38.034198 -31.843892 -5.741715 15.277481 18.214622 -0.016981 9.589352 9.755379 4.773300 -13.123900 -39.833900 -14.809787 3.737912 -5.027531 22.369452 30.963952 -23.278665 4.065275 -16.417611 27.863295 0.496012 -6.490114 2.147368 -0.181600 2.744900 -7.569300 5.721168 -0.459556 -8.264095 1.538915 -2.189133 -5.564083 -0.228761 -0.817976 2.708226 -3.674366 -4.331733 -23.913343 6.008190 -4.678376 10.314417 -0.128600 -1.738900 14.063100 -1.794351 -10.640850 -1.122898 -43.751532 -12.417342 40.283675 43.586779 -41.131469 -27.284869 1.434488 -5.438519 -65.047314 33.673797 22.719143 18.733700 -7.125000 0.000000 0.000000 10.113300 61.135600 3.998100 4.544613 12.961243 -0.041270 38.978727 24.305196 48.746130 -55.091796 43.691835 -32.829380 -0.532770 4.218658 -50.202516 -37.926274 -42.780277 31.219100 7.125000 0.000000 0.000000 -5.760900 -82.488700 4.959900 
4.089246 17.377601 31.616447 -2.858882 -31.292792 25.012079 15.344733 -5.020513 -5.100489 1.032430 -38.803396 -31.781868 -5.881310 14.765958 16.843005 -0.021107 9.896754 9.795871 4.831400 -13.191400 -40.089200 -14.808204 3.799043 -5.024013 22.118276 31.226276 -23.365954 4.062887 -16.463963 27.876017 0.437673 -6.348530 2.069964 -0.184000 2.763000 -7.619600 5.572964 -0.445459 -8.248634 1.526852 -2.154529 -5.571132 -0.168006 -0.795229 2.679734 -3.664638 -4.350220 -23.982868 6.080880 -4.696619 10.239395 -0.093500 -1.736800 14.048600 -1.801789 -10.620250 -1.125792 -43.710196 -12.255262 40.338501 43.671673 -41.185782 -27.382023 1.441538 -5.446491 -65.007762 33.807816 22.851005 18.906600 -7.125000 0.000000 0.000000 10.279400 61.331600 4.112300 4.542178 12.969230 -0.049167 39.195417 24.367430 48.831018 -54.900343 43.616471 -32.628171 -0.519070 4.214605 -50.134779 -37.632402 -42.636829 30.895100 7.125000 0.000000 0.000000 -5.040300 -82.239400 4.314600 
4.100087 17.370148 31.661504 -2.900026 -31.705222 25.179764 15.311243 -5.095282 -5.084568 1.621936 -39.343036 -31.802925 -5.998681 14.302736 15.660306 0.140118 9.716412 9.872364 4.850500 -13.213400 -40.172700 -14.806253 3.853559 -5.016971 21.863343 31.443413 -23.471974 4.056648 -16.516564 27.905496 0.378223 -6.201229 1.983523 -0.186700 2.782500 -7.673900 5.416699 -0.451177 -8.222192 1.517115 -2.141787 -5.581217 -0.105542 -0.784115 2.636507 -3.654803 -4.366099 -24.045889 6.152795 -4.711649 10.166859 -0.058700 -1.733400 14.035600 -1.807741 -10.602621 -1.128019 -43.654516 -12.097001 40.389840 43.774571 -41.245816 -27.497595 1.451940 -5.454007 -64.976766 33.931998 23.004742 19.088000 -7.125000 0.000000 0.000000 10.430200 61.551600 4.227800 4.540515 12.978986 -0.057503 39.402237 24.418458 48.907695 -54.718308 43.545444 -32.443293 -0.504555 4.219466 -50.074793 -37.624809 -42.599079 30.875300 7.125000 0.000000 0.000000 -5.138200 -82.193000 4.393700 
